<!-- Generated by IcoMoon.io -->
<svg version="1.1" xmlns="http://www.w3.org/2000/svg" width="32" height="32" viewBox="0 0 32 32">
<title>bell-2</title>
<path d="M16 0c-1.406 0-2.56 1.154-2.56 2.56 0 0.329 0.065 0.65 0.18 0.94-3.601 0.935-5.94 4.062-5.94 8.020 0 5.013-1.23 7.296-2.4 8.58-0.585 0.642-1.162 1.033-1.66 1.4-0.249 0.183-0.477 0.366-0.68 0.6s-0.38 0.57-0.38 0.94c0 0.879 0.54 1.627 1.3 2.12s1.758 0.811 2.96 1.060c1.559 0.323 3.484 0.492 5.6 0.58-0.159 0.424-0.26 0.883-0.26 1.36 0 2.113 1.727 3.84 3.84 3.84s3.84-1.727 3.84-3.84c0-0.479-0.097-0.937-0.26-1.36 2.116-0.088 4.041-0.257 5.6-0.58 1.202-0.249 2.2-0.567 2.96-1.060s1.3-1.241 1.3-2.12c0-0.37-0.177-0.706-0.38-0.94s-0.431-0.417-0.68-0.6c-0.498-0.367-1.075-0.758-1.66-1.4-1.17-1.284-2.4-3.567-2.4-8.58 0-3.955-2.345-7.080-5.94-8.020 0.115-0.29 0.18-0.611 0.18-0.94 0-1.406-1.154-2.56-2.56-2.56zM16 1.28c0.715 0 1.28 0.565 1.28 1.28s-0.566 1.28-1.28 1.28c-0.714 0-1.28-0.566-1.28-1.28s0.566-1.28 1.28-1.28zM17.5 4.6c3.413 0.609 5.54 3.244 5.54 6.92 0 5.227 1.33 7.914 2.72 9.44 0.695 0.763 1.398 1.24 1.86 1.58 0.231 0.17 0.403 0.311 0.48 0.4s0.060 0.080 0.060 0.1c0 0.401-0.184 0.693-0.72 1.040s-1.405 0.669-2.52 0.9c-2.229 0.462-5.405 0.62-8.92 0.62s-6.691-0.158-8.92-0.62c-1.115-0.231-1.984-0.553-2.52-0.9s-0.72-0.639-0.72-1.040c0-0.020-0.017-0.011 0.060-0.1s0.249-0.23 0.48-0.4c0.462-0.34 1.165-0.817 1.86-1.58 1.39-1.526 2.72-4.213 2.72-9.44 0-3.673 2.131-6.289 5.54-6.9 0.424 0.312 0.937 0.5 1.5 0.5 0.567 0 1.074-0.204 1.5-0.52zM13.8 26.84c0.718 0.016 1.448 0.040 2.2 0.040s1.482-0.024 2.2-0.040c0.229 0.384 0.36 0.84 0.36 1.32 0 1.422-1.138 2.56-2.56 2.56s-2.56-1.138-2.56-2.56c0-0.485 0.129-0.935 0.36-1.32z"></path>
</svg>
