<!-- Generated by IcoMoon.io -->
<svg version="1.1" xmlns="http://www.w3.org/2000/svg" width="32" height="32" viewBox="0 0 32 32">
<title>box-filled</title>
<path d="M18.54 0.78c-0.125 0.023-0.234 0.080-0.32 0.16l-2.7 2.32-0.92-1.020c-0.118-0.135-0.291-0.22-0.483-0.22-0.006 0-0.012 0-0.018 0-0.165 0.012-0.312 0.087-0.419 0.2l-1.6 1.62h-2.18c-0.009-0-0.019-0.001-0.030-0.001s-0.021 0-0.031 0.001c-0.008-0.001-0.018-0.001-0.029-0.001s-0.021 0-0.031 0.001c-0.107 0.024-0.201 0.073-0.279 0.141l-6.499 4.999-0.040 0.020c-0.007 0.007-0.013 0.013-0.020 0.020-0.003 0-0.007 0-0.010 0s-0.007 0-0.011 0c-0.031 0.013-0.057 0.027-0.082 0.042-0.004 0.005-0.010 0.011-0.017 0.018-0.014 0.013-0.027 0.026-0.040 0.040-0.022 0.019-0.042 0.039-0.060 0.060-0.022 0.024-0.041 0.051-0.059 0.078-0.007 0.012-0.014 0.025-0.020 0.039-0.009 0.011-0.015 0.017-0.021 0.024-0.015 0.028-0.028 0.061-0.039 0.096l-2.521 5.025c-0.043 0.084-0.069 0.183-0.069 0.289 0 0.354 0.287 0.64 0.64 0.64 0.105 0 0.205-0.025 0.292-0.071l1.636-0.818v13.040c0 0.353 0.287 0.64 0.64 0.64h19.2c0.003 0 0.006 0 0.010 0s0.007-0 0.011-0c0.044-0.003 0.085-0.010 0.124-0.021 0.020-0.006 0.040-0.013 0.060-0.020 0.16-0.047 0.293-0.154 0.374-0.295l5.042-6.303c0.087-0.108 0.14-0.248 0.14-0.4 0-0 0-0 0-0v-6.12l3.66-3.66c0.109-0.115 0.177-0.27 0.177-0.442 0-0.125-0.036-0.242-0.098-0.341l-3.718-6.197c-0.007-0.025-0.014-0.045-0.022-0.064-0.029-0.089-0.077-0.169-0.139-0.236-0.008-0.017-0.014-0.030-0.021-0.043-0.001 0.003-0.005 0.003-0.008 0.003s-0.007 0-0.011 0c-0.007-0.017-0.014-0.030-0.021-0.043-0.001 0.003-0.005 0.003-0.008 0.003s-0.007 0-0.011 0c-0.009-0.005-0.022-0.012-0.036-0.018-0.004-0.005-0.004-0.008-0.004-0.012s-0-0.007-0-0.011c-0.003 0-0.006 0-0.010 0s-0.007 0-0.011 0c-0.028-0.021-0.061-0.041-0.096-0.058-0.007-0.002-0.010-0.002-0.014-0.002s-0.007 0-0.011 0c-0.009-0.005-0.022-0.012-0.036-0.018-0.007-0.002-0.010-0.002-0.014-0.002s-0.007 0-0.011 0c-0.009-0.005-0.022-0.012-0.036-0.018-0.007-0.002-0.010-0.002-0.014-0.002s-0.007 0-0.011 0c-0.005-0-0.012-0-0.019-0s-0.014 0-0.021 0c-0.002-0-0.005-0-0.009-0s-0.007 0-0.011 0c-0.005-0-0.012-0-0.019-0s-0.014 0-0.021 0c-0.002-0-0.005-0-0.009-0s-0.007 0-0.011 0h-0.039c-0.006-0-0.013-0-0.020-0s-0.014 0-0.021 0l-0.019-0h-5.64l-2.68-2.84c-0.109-0.125-0.264-0.207-0.438-0.22-0.020-0.002-0.041-0.003-0.062-0.003s-0.042 0.001-0.063 0.003zM18.6 2.3l4.94 5.24-1.42 1.42h-1.54c-0.019-0.021-0.038-0.041-0.059-0.059l-4.161-4.681 2.24-1.92zM14.1 3.6l4.78 5.36h-10.020l5.24-5.36zM10.1 5.12h0.74l-3.78 3.84h-1.98l5.020-3.84zM22.98 5.12h2.98l-1.54 1.54-1.44-1.54zM27.4 5.52l3.16 5.24-4.2 4.2-3.16-5.24 4.2-4.2zM3.84 10.24h17.92v16.64h-17.92v-13.36c0.001-0.012 0.001-0.026 0.001-0.040s-0-0.028-0.001-0.042l0-3.198zM23.040 11.88l2.66 4.44c0.113 0.193 0.319 0.32 0.555 0.32 0.173 0 0.33-0.069 0.446-0.181l0.18-0.18v4.62l-3.84 4.8v-13.82zM2.56 12.32v0.72l-0.48 0.24 0.48-0.96zM9.42 12.8c-0.316 0.046-0.556 0.315-0.556 0.64 0 0.357 0.289 0.646 0.646 0.646 0.032 0 0.063-0.002 0.093-0.007l6.397 0c0.003 0 0.006 0 0.009 0 0.354 0 0.64-0.287 0.64-0.64s-0.287-0.64-0.64-0.64c-0.003 0-0.006 0-0.010 0h-6.4c-0.009-0-0.019-0.001-0.030-0.001s-0.021 0-0.031 0.001c-0.008-0.001-0.018-0.001-0.029-0.001s-0.021 0-0.031 0.001c-0.008-0.001-0.018-0.001-0.029-0.001s-0.021 0-0.031 0.001z"></path>
</svg>
