<!-- Generated by IcoMoon.io -->
<svg version="1.1" xmlns="http://www.w3.org/2000/svg" width="32" height="32" viewBox="0 0 32 32">
<title>circled-plus</title>
<path d="M16 1.92c-7.769 0-14.080 6.311-14.080 14.080s6.311 14.080 14.080 14.080c7.769 0 14.080-6.311 14.080-14.080s-6.311-14.080-14.080-14.080zM16 3.2c7.077 0 12.8 5.723 12.8 12.8s-5.723 12.8-12.8 12.8c-7.077 0-12.8-5.723-12.8-12.8s5.723-12.8 12.8-12.8zM15.99 11.511c-0.349 0.006-0.63 0.29-0.63 0.64 0 0.003 0 0.006 0 0.009v3.2h-3.2c-0.003-0-0.006-0-0.009-0-0.354 0-0.64 0.287-0.64 0.64s0.287 0.64 0.64 0.64c0.003 0 0.006-0 0.010-0h3.2v3.2c-0 0.003-0 0.006-0 0.009 0 0.354 0.287 0.64 0.64 0.64s0.64-0.287 0.64-0.64c0-0.003-0-0.006-0-0.010v-3.2h3.2c0.003 0 0.006 0 0.009 0 0.354 0 0.64-0.287 0.64-0.64s-0.287-0.64-0.64-0.64c-0.003 0-0.006 0-0.010 0h-3.2v-3.2c0-0.003 0-0.006 0-0.009 0-0.354-0.287-0.64-0.64-0.64-0.004 0-0.007 0-0.011 0z"></path>
</svg>
