<!-- Generated by IcoMoon.io -->
<svg version="1.1" xmlns="http://www.w3.org/2000/svg" width="32" height="32" viewBox="0 0 32 32">
<title>circled-question</title>
<path d="M16 1.92c-7.77 0-14.080 6.31-14.080 14.080s6.31 14.080 14.080 14.080 14.080-6.311 14.080-14.080-6.311-14.080-14.080-14.080zM16 3.046c7.161 0 12.954 5.793 12.954 12.954s-5.793 12.954-12.954 12.954-12.954-5.793-12.954-12.954 5.793-12.954 12.954-12.954zM16.158 8.96c-2.101 0-3.498 1.282-3.802 3.221-0.020 0.122 0.054 0.191 0.176 0.211l1.267 0.229c0.122 0.020 0.209-0.037 0.229-0.158 0.242-1.232 0.963-1.918 2.094-1.918 1.152 0 1.954 0.732 1.954 1.883 0 0.687-0.244 1.143-0.95 2.112l-1.355 1.866c-0.424 0.586-0.598 1.004-0.598 1.813v0.827c0 0.121 0.090 0.196 0.211 0.194h1.32c0.121 0 0.211-0.073 0.211-0.194v-0.651c0-0.687 0.124-0.968 0.528-1.514l1.338-1.848c0.687-0.95 1.038-1.67 1.038-2.64 0-2-1.48-3.432-3.661-3.432zM15.278 20.787c-0.122 0-0.211 0.073-0.211 0.194v1.742c0 0.121 0.089 0.194 0.211 0.194h1.531c0.12 0 0.211-0.072 0.211-0.194v-1.742c0-0.12-0.090-0.194-0.211-0.194h-1.531z"></path>
</svg>
