<!-- Generated by IcoMoon.io -->
<svg version="1.1" xmlns="http://www.w3.org/2000/svg" width="32" height="32" viewBox="0 0 32 32">
<title>circled-ok</title>
<path d="M16 1.92c-7.769 0-14.080 6.311-14.080 14.080s6.311 14.080 14.080 14.080c7.769 0 14.080-6.311 14.080-14.080s-6.311-14.080-14.080-14.080zM16 3.2c7.077 0 12.8 5.723 12.8 12.8s-5.723 12.8-12.8 12.8c-7.077 0-12.8-5.723-12.8-12.8s5.723-12.8 12.8-12.8zM21.8 9.26l-7 10.88-4.7-4.24-0.86 0.96 5.24 4.74 0.56 0.5 0.4-0.64 7.44-11.52-1.080-0.68z"></path>
</svg>
