<!-- Generated by IcoMoon.io -->
<svg version="1.1" xmlns="http://www.w3.org/2000/svg" width="32" height="32" viewBox="0 0 32 32">
<title>cutting-coupon</title>
<path d="M3.16 3.14c-0.823 0-1.63 0.33-2.26 0.96-1.26 1.26-1.26 3.28 0 4.54l1.28 1.28c0.627 0.627 1.469 0.888 2.32 0.86l1.38 1.38-1.4 1.38c-0.844-0.022-1.678 0.238-2.3 0.86l-1.28 1.28c-1.26 1.26-1.26 3.28 0 4.54s3.28 1.26 4.54 0l1.28-1.28c0.627-0.627 0.888-1.469 0.86-2.32l12.32-12.32c0.12-0.117 0.195-0.28 0.195-0.46 0-0.352-0.284-0.637-0.635-0.64h-2.76c-1.175 0-2.313 0.451-3.14 1.34-0.007 0.007-0.014 0.013-0.020 0.020l-4.58 4.52-1.38-1.38c0.028-0.851-0.233-1.693-0.86-2.32l-1.28-1.28c-0.63-0.63-1.457-0.96-2.28-0.96zM3.16 4.4c0.488 0 0.986 0.206 1.38 0.6l1.28 1.28c0.425 0.425 0.613 1.062 0.52 1.62-0.006 0.032-0.009 0.069-0.009 0.106 0 0.177 0.072 0.338 0.189 0.454l1.54 1.54-1.26 1.26-1.54-1.54c-0.116-0.117-0.277-0.189-0.454-0.189-0.037 0-0.074 0.003-0.11 0.009-0.554 0.092-1.191-0.095-1.616-0.521l-1.28-1.28c-0.788-0.788-0.788-1.952 0-2.74 0.394-0.394 0.872-0.6 1.36-0.6zM16.7 4.48h1.2l-11.38 11.38c-0.117 0.116-0.189 0.277-0.189 0.454 0 0.037 0.003 0.074 0.009 0.11 0.092 0.554-0.095 1.191-0.521 1.616l-1.28 1.28c-0.788 0.788-1.952 0.788-2.74 0s-0.788-1.952 0-2.74l1.28-1.28c0.425-0.425 1.062-0.613 1.62-0.52 0.032 0.006 0.069 0.009 0.106 0.009 0.177 0 0.338-0.072 0.454-0.189l9.2-9.16c0.007-0.007 0.013-0.013 0.020-0.020 0.58-0.633 1.356-0.94 2.22-0.94zM3.52 5.78c-0.256-0.008-0.508 0.080-0.7 0.24-0.384 0.32-0.384 0.956 0 1.34l0.64 0.64c0.384 0.384 1.016 0.38 1.4 0.060 0.384-0.384 0.384-0.956 0-1.34l-0.64-0.64c-0.192-0.192-0.444-0.292-0.7-0.3zM15.74 10.24l-1.28 1.28h2.18v-1.28h-0.9zM17.92 10.24v1.28h2.56v-1.28h-2.56zM21.76 10.24v1.28h2.56v-1.28h-2.56zM25.6 10.24v1.28h2.56v-1.28h-2.56zM29.44 10.24v1.28h1.28v1.28h1.28v-2.56h-2.56zM8.96 11.46c-0.389 0-0.7 0.311-0.7 0.7s0.311 0.7 0.7 0.7c0.389 0 0.7-0.311 0.7-0.7s-0.311-0.7-0.7-0.7zM12.94 13.060l-0.92 0.9 5.88 5.88h-1.2c-0.864 0-1.64-0.307-2.22-0.94-0.007-0.007-0.013-0.013-0.020-0.020l-3.64-3.66-0.9 0.92 3.62 3.62c0.006 0.007 0.014 0.013 0.020 0.020 0.826 0.889 1.965 1.34 3.14 1.34h2.76c0.351-0.003 0.635-0.288 0.635-0.64 0-0.18-0.075-0.343-0.195-0.46l-6.96-6.96zM30.72 14.080v2.56h1.28v-2.56h-1.28zM4.2 15.96c-0.24 0-0.488 0.108-0.68 0.3l-0.64 0.64c-0.384 0.384-0.384 0.956 0 1.34s0.956 0.384 1.34 0l0.64-0.64c0.32-0.32 0.32-0.956 0-1.34-0.192-0.192-0.42-0.3-0.66-0.3zM30.72 17.92v2.56h1.28v-2.56h-1.28zM7.68 20.48l-1.28 1.28v2.56h1.28v-3.84zM30.72 21.76v2.56h1.28v-2.56h-1.28zM6.4 25.6v2.56h2.56v-1.28h-1.28v-1.28h-1.28zM30.72 25.6v1.28h-1.28v1.28h2.56v-2.56h-1.28zM10.24 26.88v1.28h2.56v-1.28h-2.56zM14.080 26.88v1.28h2.56v-1.28h-2.56zM17.92 26.88v1.28h2.56v-1.28h-2.56zM21.76 26.88v1.28h2.56v-1.28h-2.56zM25.6 26.88v1.28h2.56v-1.28h-2.56z"></path>
</svg>
