<!-- Generated by IcoMoon.io -->
<svg version="1.1" xmlns="http://www.w3.org/2000/svg" width="32" height="32" viewBox="0 0 32 32">
<title>dockas</title>
<path d="M15.424 3.835c0-0.598-0.485-1.083-1.083-1.083h-6.474c-0.598 0-1.083 0.485-1.083 1.083v1.098c0 0.598 0.485 1.083 1.083 1.083h6.474c0.598 0 1.083-0.485 1.083-1.083v-1.098zM11.671 22.232c0-3.437 2.281-6.338 5.417-7.268v-0.421c0-1.256-1.027-5.285-2.246-7.542-0.145 0.031-0.298 0.039-0.452 0.039h-6.498c-0.159 0-0.308-0.007-0.457-0.039-1.213 2.256-2.251 6.285-2.251 7.542v12.015c0 1.493 1.215 2.69 2.708 2.69h6.498c0.474 0 0.917-0.114 1.305-0.329-2.393-1.275-4.024-3.786-4.024-6.686zM28.295 11.995l0.108-0.607-0.614-0.048c-0.139-0.011-0.296-0.025-0.471-0.025-2.682 0-4.964 1.743-5.91 4.189-0.013-0.002-0.026-0.005-0.040-0.007l-0.339-2.038c-0.041-0.269-0.27-0.47-0.541-0.475-0.309-0.006-0.564 0.239-0.57 0.548-0.001 0.037 0.002 0.074 0.009 0.11l0.295 1.769c-3.821 0.026-6.911 3.131-6.911 6.959 0 3.844 3.116 6.96 6.96 6.96s6.96-3.116 6.96-6.96c0-2.225-1.045-4.204-2.67-5.479l0.026 0.002c1.903-0.881 3.318-2.706 3.709-4.899z"></path>
</svg>
