<!-- Generated by IcoMoon.io -->
<svg version="1.1" xmlns="http://www.w3.org/2000/svg" width="32" height="32" viewBox="0 0 32 32">
<title>exit</title>
<path d="M1.92 0c-1.053 0-1.92 0.867-1.92 1.92v28.16c0 1.052 0.867 1.92 1.92 1.92h21.76c1.053 0 1.92-0.867 1.92-1.92v-5.12l-1.28 1.28v3.84c0 0.36-0.28 0.64-0.64 0.64h-21.76c-0.361 0-0.64-0.279-0.64-0.64v-28.16c0-0.362 0.278-0.64 0.64-0.64h21.76c0.361 0 0.64 0.279 0.64 0.64v3.84l1.28 1.28v-5.12c0-1.053-0.868-1.92-1.92-1.92h-21.76zM24.22 8.38c-0.301 0.056-0.526 0.317-0.526 0.63 0 0.186 0.079 0.353 0.205 0.47l5.88 5.88h-18.9c-0.009-0-0.019-0.001-0.030-0.001s-0.021 0-0.031 0.001c-0.339 0.016-0.609 0.297-0.609 0.64 0 0.354 0.287 0.641 0.641 0.641 0.011 0 0.021-0 0.031-0.001l18.899 0-5.88 5.88c-0.146 0.118-0.238 0.298-0.238 0.498 0 0.354 0.287 0.64 0.64 0.64 0.201 0 0.38-0.093 0.497-0.237l6.981-6.961 0.44-0.46-0.44-0.46-6.98-6.96c-0.117-0.125-0.283-0.202-0.467-0.202-0.019 0-0.037 0.001-0.055 0.002-0.007-0.001-0.017-0.001-0.028-0.001s-0.021 0-0.031 0.001z"></path>
</svg>
