<!-- Generated by IcoMoon.io -->
<svg version="1.1" xmlns="http://www.w3.org/2000/svg" width="32" height="32" viewBox="0 0 32 32">
<title>forward</title>
<path d="M18.48 7.040c-0.317 0.041-0.56 0.31-0.56 0.635 0 0.002 0 0.003 0 0.005v4.52c-7.368 0.224-11.339 4.126-13.3 8-1.988 3.927-2.058 7.757-2.060 7.88-0 0.001 0 0.040 0 0.040v0.040c-0 0.006-0 0.013-0 0.020 0 0.354 0.287 0.64 0.64 0.64 0.347 0 0.629-0.276 0.64-0.619 0-0.001-0-0.040 0-0.041 0.004-0.059 0.147-1.999 1.98-4.060 1.799-2.023 5.313-4.062 12.1-4.2v4.42c0 0 0 0 0 0 0 0.354 0.287 0.64 0.64 0.64 0.152 0 0.291-0.053 0.401-0.141l10.239-8.319c0.147-0.118 0.24-0.298 0.24-0.5s-0.093-0.382-0.239-0.499l-10.241-8.321c-0.109-0.090-0.251-0.144-0.405-0.144-0.026 0-0.052 0.002-0.078 0.005zM19.2 9.020l8.58 6.98-8.58 6.98v-3.78c-0-0.353-0.287-0.64-0.64-0.64-7.521 0-11.577 2.313-13.7 4.7-0.080 0.090-0.125 0.169-0.2 0.26 0.27-0.88 0.625-1.821 1.1-2.76 1.868-3.69 5.432-7.32 12.8-7.32 0.353-0 0.64-0.287 0.64-0.64v-3.78z"></path>
</svg>
