<!-- Generated by IcoMoon.io -->
<svg version="1.1" xmlns="http://www.w3.org/2000/svg" width="32" height="32" viewBox="0 0 32 32">
<title>happy</title>
<path d="M16 0.64c-8.476 0-15.36 6.884-15.36 15.36s6.884 15.36 15.36 15.36c8.476 0 15.36-6.884 15.36-15.36s-6.884-15.36-15.36-15.36zM16 1.92c7.784 0 14.080 6.296 14.080 14.080s-6.296 14.080-14.080 14.080c-7.784 0-14.080-6.296-14.080-14.080s6.296-14.080 14.080-14.080zM10.88 12.16c-1.060 0-1.92 0.86-1.92 1.92s0.86 1.92 1.92 1.92c1.060 0 1.92-0.86 1.92-1.92s-0.86-1.92-1.92-1.92zM21.12 12.16c-1.060 0-1.92 0.86-1.92 1.92s0.86 1.92 1.92 1.92c1.060 0 1.92-0.86 1.92-1.92s-0.86-1.92-1.92-1.92zM7.58 19.2c-0.313 0.046-0.55 0.312-0.55 0.634 0 0.146 0.049 0.28 0.131 0.388-0.001-0.002 3.346 4.738 8.839 4.738s8.84-4.74 8.84-4.74c0.078-0.105 0.124-0.237 0.124-0.38 0-0.356-0.288-0.644-0.644-0.644-0.213 0-0.401 0.103-0.519 0.262-0.001 0.002-3.055 4.222-7.801 4.222s-7.8-4.22-7.8-4.22c-0.118-0.163-0.307-0.268-0.521-0.268-0.035 0-0.069 0.003-0.103 0.008z"></path>
</svg>
