<!-- Generated by IcoMoon.io -->
<svg version="1.1" xmlns="http://www.w3.org/2000/svg" width="32" height="32" viewBox="0 0 32 32">
<title>lock</title>
<path d="M16 1.92c-4.247 0-7.68 3.433-7.68 7.68v3.2h-2.56c-1.053 0-1.92 0.867-1.92 1.92v15.36c0 1.053 0.867 1.92 1.92 1.92h20.48c1.053 0 1.92-0.867 1.92-1.92v-15.36c0-1.053-0.867-1.92-1.92-1.92h-2.56v-3.2c0-4.247-3.433-7.68-7.68-7.68zM16 3.2c3.561 0 6.4 2.839 6.4 6.4v3.2h-12.8v-3.2c0-3.561 2.839-6.4 6.4-6.4zM5.76 14.080h20.48c0.355 0 0.64 0.285 0.64 0.64v15.36c0 0.355-0.285 0.64-0.64 0.64h-20.48c-0.355 0-0.64-0.285-0.64-0.64v-15.36c0-0.355 0.285-0.64 0.64-0.64zM16 19.2c-1.088 0-1.92 0.832-1.92 1.92 0 0.576 0.256 1.080 0.64 1.4v1.8c0 0.704 0.576 1.28 1.28 1.28s1.28-0.576 1.28-1.28v-1.8c0.384-0.32 0.64-0.824 0.64-1.4 0-1.088-0.832-1.92-1.92-1.92z"></path>
</svg>
