<!-- Generated by IcoMoon.io -->
<svg version="1.1" xmlns="http://www.w3.org/2000/svg" width="32" height="32" viewBox="0 0 32 32">
<title>paper-plane</title>
<path d="M31.3 0c-0.090 0.011-0.171 0.039-0.243 0.082l-30.717 16.638c-0.201 0.109-0.334 0.318-0.334 0.558 0 0.279 0.18 0.515 0.43 0.6l8.724 2.861-0.84 8.64c-0.003 0.024-0.005 0.052-0.005 0.080 0 0.35 0.284 0.634 0.634 0.634 0.198 0 0.374-0.091 0.491-0.232l5.501-6.221 8.3 8.18c0.114 0.113 0.271 0.182 0.445 0.182 0.296 0 0.545-0.203 0.614-0.478l7.681-30.724c0.015-0.051 0.023-0.11 0.023-0.17 0-0.35-0.284-0.634-0.634-0.634-0.025 0-0.049 0.001-0.073 0.004zM30.38 1.88l-7.060 28.24-7.58-7.48 11.020-15.22c0.109-0.114 0.177-0.269 0.177-0.44 0-0.352-0.285-0.637-0.637-0.637-0.181 0-0.344 0.075-0.46 0.196l-16.1 13.040-7.5-2.44 28.14-15.26zM22.9 10.56l-8.4 11.66c-0.021 0.024-0.041 0.050-0.058 0.077l-0.042 0.043c-0.013 0.017-0.026 0.037-0.038 0.057l-4.582 5.143 0.68-6.92 12.44-10.060z"></path>
</svg>
