<!-- Generated by IcoMoon.io -->
<svg version="1.1" xmlns="http://www.w3.org/2000/svg" width="32" height="32" viewBox="0 0 32 32">
<title>price-tag</title>
<path d="M18.32 1.28c-0.214 0.003-0.436 0.011-0.66 0.040-0.439 0.057-0.92 0.203-1.28 0.6-0.007 0.007-0.013 0.012-0.020 0.020l-14.5 14.5c-0.707 0.707-0.697 1.849-0.040 2.6l0.040 0.040 11.12 11.14c0.707 0.707 1.849 0.677 2.6 0.020l0.020-0.020h0.020l14.52-14.54c0.728-0.728 0.64-1.728 0.64-2.56v-0.1c0 0 0.004 0.005 0-0.020-0.001-0.004 0.001-0.015 0-0.020-0.001-0.025 0.001-0.084 0-0.12-0.002-0.055-0.018-0.102-0.020-0.18-0.006-0.258-0.015-0.635-0.020-1.080-0.009-0.89-0.016-2.073-0.020-3.26-0.008-2.375 0-4.756 0-4.82 0-1.231-1.009-2.24-2.24-2.24h-9.54c-0.2 0-0.406-0.003-0.62 0zM18.32 2.56c0.19-0 0.404 0 0.62 0h9.54c0.561 0 0.96 0.399 0.96 0.96 0 0.064-0.008 2.443 0 4.82 0.004 1.189 0.011 2.384 0.020 3.28 0.005 0.448 0.014 0.811 0.020 1.080 0.003 0.135 0.016 0.257 0.020 0.34 0.002 0.033-0.002 0.050 0 0.080 0.001 0.007-0.001 0.012 0 0.020-0.002 0.818-0.094 1.474-0.26 1.64l-14.5 14.5c-0.007 0.006-0.013 0.014-0.020 0.020-0.272 0.22-0.636 0.184-0.82 0l-11.14-11.12c-0.22-0.272-0.184-0.656 0-0.84l14.56-14.56c0.086-0.098 0.211-0.162 0.5-0.2 0.144-0.019 0.31-0.020 0.5-0.020zM24.96 4.48c-1.406 0-2.56 1.154-2.56 2.56s1.154 2.56 2.56 2.56c1.406 0 2.56-1.154 2.56-2.56s-1.154-2.56-2.56-2.56zM24.96 5.76c0.715 0 1.28 0.566 1.28 1.28s-0.566 1.28-1.28 1.28c-0.715 0-1.28-0.566-1.28-1.28s0.566-1.28 1.28-1.28zM20.68 10.88l-1.040 1.020c-0.832-0.64-2.744-1.336-4.28 0.2-2.88 2.88 2.816 5.624 0.64 7.8-0.768 0.768-1.732 1.088-3.14-0.32s-0.696-2.884-0.12-3.46l-0.9-0.88c-1.792 2.112-0.9 3.904-0.26 4.8l-0.9 0.88 0.9 0.9 0.84-0.82c0.832 0.576 2.932 1.652 4.66-0.14 1.472-1.472 0.716-3.128-0.18-4.6-0.768-1.216-1.356-2.304-0.46-3.2 0.384-0.384 1.476-1.164 2.82 0.18 0.96 0.96 0.836 1.988 0.26 2.82l0.9 0.9c0.704-1.28 1.208-2.624 0.12-4.16l1.020-1.020-0.88-0.9z"></path>
</svg>
