<!-- Generated by IcoMoon.io -->
<svg version="1.1" xmlns="http://www.w3.org/2000/svg" width="32" height="32" viewBox="0 0 32 32">
<title>shopping-cart-loaded</title>
<path d="M1.16 1.28c-0.025 0.007-0.045 0.014-0.064 0.022-0.617 0.086-1.096 0.613-1.096 1.258 0 0.707 0.573 1.28 1.28 1.28s1.28-0.573 1.28-1.28h2.98c0.798 0 1.212 0.164 1.52 0.44 0.303 0.272 0.547 0.734 0.76 1.44l5.12 20.66c0.193 0.733 0.386 1.487 0.92 2.1 0.222 0.255 0.502 0.463 0.84 0.62-0.374 0.445-0.62 0.997-0.62 1.62 0 1.406 1.154 2.56 2.56 2.56s2.56-1.154 2.56-2.56c0-0.469-0.137-0.901-0.36-1.28h3.92c-0.223 0.379-0.36 0.811-0.36 1.28 0 1.406 1.154 2.56 2.56 2.56s2.56-1.154 2.56-2.56c0-0.658-0.267-1.245-0.68-1.7 0.025-0.065 0.039-0.141 0.039-0.22 0-0.353-0.286-0.639-0.639-0.64h-9.78c-0.986 0-1.39-0.21-1.66-0.52-0.267-0.307-0.431-0.846-0.62-1.56v-0.020l-0.44-1.74h11.74c0.001 0 0.001 0 0.002 0 0.274 0 0.507-0.173 0.597-0.416l4.601-12.164c0.026-0.067 0.041-0.144 0.041-0.224 0-0.351-0.285-0.636-0.636-0.636-0.002 0-0.003 0-0.005 0h-1.56c-0.007-0.007-0.013-0.013-0.020-0.020l-5.42-5.42c-0.117-0.125-0.283-0.202-0.467-0.202-0.019 0-0.037 0.001-0.055 0.002-0.149 0.022-0.28 0.095-0.377 0.199l-2.1 2.12-2.12-2.12c-0.117-0.125-0.283-0.202-0.467-0.202-0.019 0-0.037 0.001-0.055 0.002-0.149 0.022-0.28 0.095-0.377 0.199l-5.42 5.42c-0.007 0.007-0.013 0.013-0.020 0.020l-1.2 0-1.36-5.46c0-0.006 0-0.013 0-0.020s-0-0.014-0-0.021c-0.245-0.823-0.562-1.54-1.14-2.059s-1.389-0.76-2.38-0.76h-4.26c-0.009-0-0.019-0.001-0.030-0.001s-0.021 0-0.031 0.001c-0.008-0-0.018-0.001-0.029-0.001s-0.021 0-0.031 0.001zM17.52 5.52l1.9 1.9c0.061 0.185 0.2 0.33 0.376 0.399 0.020 0.008 0.039 0.015 0.060 0.020l1.745 1.761h-8.18l4.1-4.080zM22.64 5.52l4.080 4.080h-3.32c-0.007-0.007-0.013-0.013-0.020-0.020l-2.4-2.4 1.66-1.66zM10.74 10.88h18.42l-4.12 10.88h-11.6l-2.7-10.88zM16.64 28.16c0.715 0 1.28 0.566 1.28 1.28s-0.566 1.28-1.28 1.28c-0.714 0-1.28-0.566-1.28-1.28s0.566-1.28 1.28-1.28zM24.96 28.16c0.715 0 1.28 0.566 1.28 1.28s-0.566 1.28-1.28 1.28c-0.715 0-1.28-0.566-1.28-1.28s0.566-1.28 1.28-1.28z"></path>
</svg>
