<!-- Generated by IcoMoon.io -->
<svg version="1.1" xmlns="http://www.w3.org/2000/svg" width="32" height="32" viewBox="0 0 32 32">
<title>tags</title>
<path d="M16.080 1.28c-0.191 0.004-0.384 0.015-0.58 0.040-0.392 0.051-0.819 0.178-1.16 0.52l-12.56 12.56c-0.653 0.652-0.653 1.727 0 2.38l3.64 3.66c0.030 0.029 0.062 0.055 0.098 0.078 0.011 0.012 0.033 0.011 0.042 0.021 0.007 0.007 0.013 0.013 0.020 0.020 0.016 0.018 0.023 0.043 0.040 0.060l9.6 9.6c0.652 0.653 1.727 0.653 2.38 0l12.56-12.56c0.339-0.338 0.469-0.769 0.52-1.16s0.040-0.775 0.040-1.14v-0.080c-0-0.059 0-0.149 0-0.26 0-0.073 0-0.208 0-0.3 0-0.19 0-0.363 0-0.62 0-0.764-0-1.798 0-2.82 0-2.045 0-4.094 0-4.14 0-1.109-0.911-2.020-2.020-2.020h-1.82v-1.82c0-1.109-0.911-2.020-2.020-2.020h-8.22c-0.178 0-0.369-0.004-0.56 0zM16.1 2.56c0.162-0.001 0.351 0 0.54 0h8.22c0.418 0 0.74 0.322 0.74 0.74v1.82h-2.4c-0.025-0.028-0.052-0.052-0.080-0.080-0.372-0.372-0.867-0.56-1.36-0.56s-0.988 0.188-1.36 0.56c-0.028 0.028-0.055 0.051-0.080 0.080-0.313-0.001-0.644-0.004-0.98 0.040-0.392 0.051-0.819 0.178-1.16 0.52l-12.56 12.56c-0.099 0.099-0.191 0.204-0.26 0.32l-2.68-2.68c-0.164-0.164-0.163-0.417 0-0.58l12.56-12.56c0.067-0.067 0.195-0.128 0.44-0.16 0.123-0.016 0.258-0.019 0.42-0.020zM19.94 6.4h8.76c0.417 0 0.74 0.322 0.74 0.74 0 0.040 0 2.095 0 4.14-0 1.022 0 2.056 0 2.82 0 0.382-0 0.697 0 0.92 0 0.111-0 0.2 0 0.26 0 0.030-0 0.044 0 0.060s0 0.020 0 0.020c0 0.387 0.012 0.738-0.020 0.98s-0.090 0.35-0.16 0.42l-12.56 12.56c-0.164 0.164-0.417 0.163-0.58 0l-9.6-9.6c-0.164-0.164-0.163-0.417 0-0.58l12.56-12.56c0.067-0.067 0.195-0.128 0.44-0.16 0.123-0.016 0.258-0.019 0.42-0.020zM25.6 8.32c-0.493 0-0.988 0.188-1.36 0.56-0.744 0.745-0.745 1.976 0 2.72s1.976 0.745 2.72 0c0.744-0.745 0.745-1.976 0-2.72-0.372-0.372-0.867-0.56-1.36-0.56zM25.6 9.6c0.162-0 0.332 0.052 0.46 0.18 0.255 0.255 0.255 0.665 0 0.92s-0.665 0.255-0.92 0c-0.255-0.255-0.255-0.665 0-0.92 0.128-0.128 0.298-0.18 0.46-0.18z"></path>
</svg>
