<!-- Generated by IcoMoon.io -->
<svg version="1.1" xmlns="http://www.w3.org/2000/svg" width="32" height="32" viewBox="0 0 32 32">
<title>ticket</title>
<path d="M21.12 0.040c-0.459 0-0.908 0.196-1.26 0.54l-0.020-0.020-3.78 3.74c-0.103 0.063-0.185 0.151-0.238 0.256l-15.322 15.204c-0 0.003-0 0.006-0 0.010s0 0.007 0 0.011c-0.707 0.706-0.707 1.853 0 2.559l2 1.98c0.116 0.117 0.277 0.189 0.454 0.189 0.146 0 0.28-0.049 0.387-0.13 0.549-0.439 1.265-0.759 1.978-0.759 1.701 0 3 1.36 3 3 0 0.744-0.27 1.417-0.74 1.94-0.097 0.112-0.156 0.258-0.156 0.419 0 0.181 0.075 0.344 0.196 0.461l1.98 1.98c0.707 0.707 1.853 0.707 2.56 0l15.14-15.14h0.020c0.244-0.059 0.43-0.253 0.479-0.496 0.001-0.007 0.001-0.011 0.001-0.014s-0-0.007-0-0.011l3.56-3.539c0.024-0.018 0.037-0.041 0.060-0.060 0.769-0.644 0.766-1.814 0.080-2.5l-2-1.98c-0.116-0.117-0.277-0.189-0.454-0.189-0.146 0-0.28 0.049-0.387 0.13-0.545 0.436-1.155 0.699-1.898 0.699-1.701 0-3.020-1.36-3.020-3 0-0.744 0.263-1.373 0.7-1.92 0.081-0.106 0.129-0.24 0.129-0.386 0-0.178-0.072-0.338-0.189-0.454l-1.98-1.98c-0.353-0.353-0.814-0.54-1.28-0.54zM21.12 1.34c0.143 0 0.285 0.045 0.38 0.14l1.64 1.64c-0.39 0.639-0.68 1.373-0.68 2.2 0 2.328 1.905 4.28 4.3 4.28 0.829 0 1.54-0.289 2.18-0.68l1.64 1.64c0.189 0.189 0.204 0.502 0.020 0.64-0.030 0.019-0.056 0.039-0.081 0.061l-3.419 3.419c-0.113-0.101-0.262-0.162-0.426-0.162-0.019 0-0.038 0.001-0.056 0.002-0.324 0.032-0.577 0.305-0.577 0.637 0 0.162 0.060 0.311 0.16 0.424l-14.941 14.939c-0.189 0.189-0.571 0.189-0.76 0l-1.64-1.64c0.436-0.67 0.74-1.431 0.74-2.26 0-2.328-1.885-4.28-4.28-4.28-0.857 0-1.609 0.33-2.26 0.74l-1.64-1.64c-0.189-0.189-0.189-0.571 0-0.76l14.98-14.9c0.117 0.119 0.28 0.194 0.46 0.194 0.355 0 0.643-0.288 0.643-0.643 0-0.175-0.070-0.334-0.184-0.45l3.42-3.4c0.095-0.095 0.237-0.14 0.38-0.14zM18.54 6.48l-0.48 0.32-0.020 0.58 0.14 0.18 0.88 0.9 0.56 0.18 0.46-0.34 0.020-0.56-0.12-0.2-0.9-0.88-0.54-0.18zM21.22 9.16l-0.46 0.34-0.020 0.56 0.12 0.2 0.9 0.9 0.54 0.18 0.48-0.34 0.020-0.56-0.12-0.2-0.9-0.9-0.56-0.18zM23.92 11.86l-0.46 0.32-0.020 0.58 0.12 0.18 0.9 0.9 0.54 0.18 0.48-0.32 0.020-0.58-0.14-0.18-0.9-0.9-0.54-0.18z"></path>
</svg>
