<!-- Generated by IcoMoon.io -->
<svg version="1.1" xmlns="http://www.w3.org/2000/svg" width="32" height="32" viewBox="0 0 32 32">
<title>user-checked</title>
<path d="M12.72 0.26c-2.99 0.055-4.899 1.264-5.72 3.14-0.782 1.787-0.607 4.045-0.040 6.38-0.305 0.357-0.546 0.837-0.46 1.56 0.095 0.787 0.311 1.346 0.62 1.74 0.169 0.216 0.393 0.236 0.6 0.34 0.113 0.669 0.3 1.341 0.58 1.9 0.161 0.321 0.341 0.619 0.52 0.86 0.079 0.107 0.196 0.17 0.28 0.26 0.004 0.79 0.008 1.448-0.060 2.28-0.208 0.502-0.693 0.907-1.48 1.3-0.812 0.406-1.871 0.781-2.94 1.24s-2.17 1.020-3.040 1.9c-0.87 0.88-1.484 2.088-1.58 3.68l-0.040 0.68h16.040l-0.42-1.28h-14.14c0.181-0.906 0.518-1.631 1.060-2.18 0.682-0.69 1.614-1.207 2.62-1.64s2.068-0.774 3-1.24c0.932-0.466 1.794-1.077 2.16-2.060l0.040-0.16c0.097-1.072 0.060-1.833 0.060-2.76v-0.38l-0.34-0.18c0.058 0.030-0.079-0.057-0.2-0.22s-0.267-0.395-0.4-0.66c-0.266-0.53-0.482-1.212-0.54-1.76l-0.060-0.52-0.54-0.040c-0.005-0-0.065 0.007-0.18-0.14s-0.264-0.471-0.34-1.1c-0.064-0.532 0.208-0.717 0.18-0.7l0.42-0.26-0.12-0.46c-0.603-2.319-0.707-4.428-0.080-5.86 0.625-1.428 1.899-2.326 4.56-2.38 0.008 0 0.012-0 0.020 0 1.289 0.005 2.122 0.383 2.36 0.8l0.16 0.26 0.3 0.040c0.89 0.124 1.4 0.482 1.76 0.98s0.56 1.192 0.62 1.96c0.12 1.536-0.322 3.323-0.6 4.16l-0.16 0.5 0.44 0.26c-0.028-0.017 0.244 0.168 0.18 0.7-0.076 0.629-0.225 0.953-0.34 1.1s-0.175 0.14-0.18 0.14l-0.54 0.040-0.060 0.52c-0.059 0.553-0.282 1.23-0.54 1.76-0.129 0.265-0.263 0.498-0.38 0.66s-0.241 0.252-0.18 0.22l-0.34 0.18v0.38c0 0.926-0.037 1.687 0.060 2.76v0.080l0.040 0.080c0.205 0.551 0.565 1.107 1.16 1.46l0.66-1.1c-0.271-0.161-0.448-0.434-0.58-0.76-0.068-0.833-0.064-1.491-0.060-2.28 0.083-0.091 0.202-0.153 0.28-0.26 0.175-0.242 0.344-0.539 0.5-0.86 0.273-0.56 0.469-1.233 0.58-1.9 0.201-0.104 0.415-0.129 0.58-0.34 0.309-0.394 0.525-0.953 0.62-1.74 0.084-0.7-0.149-1.162-0.44-1.52 0.312-1.015 0.712-2.656 0.58-4.34-0.072-0.919-0.308-1.837-0.86-2.6-0.506-0.699-1.325-1.21-2.36-1.42-0.672-0.872-1.883-1.2-3.28-1.2h-0.020zM24.32 16.64c-4.234 0-7.68 3.446-7.68 7.68s3.446 7.68 7.68 7.68c4.234 0 7.68-3.446 7.68-7.68s-3.446-7.68-7.68-7.68zM24.32 17.92c3.542 0 6.4 2.858 6.4 6.4s-2.858 6.4-6.4 6.4c-3.542 0-6.4-2.858-6.4-6.4s2.858-6.4 6.4-6.4zM27.42 21.5l-0.4 0.5-3.1 3.96-2.38-2.12-0.48-0.42-0.84 0.96 0.48 0.42 2.88 2.56 0.5 0.46 0.42-0.54 3.52-4.48 0.4-0.5-1-0.8z"></path>
</svg>
