<!-- Generated by IcoMoon.io -->
<svg version="1.1" xmlns="http://www.w3.org/2000/svg" width="32" height="32" viewBox="0 0 32 32">
<title>bell-1</title>
<path d="M25.6 3.2c-0.959 0-1.795 0.536-2.231 1.322-0.896-0.449-1.875-0.679-2.856-0.679-1.631 0-3.262 0.62-4.503 1.861l-2.699 2.7 0.055-0.023c-0.036 0.032-0.046 0.040-0.074 0.065l0.018-0.043c-0.306 0.306-1.421 0.802-2.681 1.155s-2.686 0.636-3.768 0.834c-0.552 0.101-1.165 0.226-1.65 0.711-0.077 0.077-0.054 0.060-0.050 0.061-0.003-0.001 0.024-0.032-0.054 0.043l-0.005 0.004-0.004 0.005c-0.117 0.117-0.124 0.188-0.14 0.25-0.749 1.099-0.558 2.648 0.183 4.329 0.768 1.745 2.168 3.713 4.119 5.664 0.333 0.333 0.666 0.643 0.999 0.944-0.785 0.581-1.299 1.507-1.299 2.556 0 1.76 1.44 3.2 3.2 3.2 1.499 0 2.757-1.049 3.1-2.446 1.554 0.622 2.975 0.748 4.001 0.043 0.062-0.017 0.13-0.023 0.241-0.135 0.087-0.087 0.054-0.060 0.050-0.061-0 0.005-0.015 0.026 0.063-0.051 0.485-0.485 0.611-1.098 0.711-1.651 0.198-1.082 0.481-2.506 0.834-3.766s0.849-2.375 1.155-2.681c0 0 0.002-0.003 0.003-0.004l2.696-2.697c1.776-1.774 2.274-4.347 1.51-6.576 0.952-0.373 1.636-1.293 1.636-2.373 0-1.406-1.154-2.56-2.56-2.56zM25.6 4.48c0.715 0 1.28 0.565 1.28 1.28 0 0.579-0.41 0.987-0.934 1.143-0.259-0.426-0.564-0.83-0.931-1.197-0.162-0.162-0.33-0.312-0.504-0.452 0.2-0.435 0.573-0.772 1.089-0.772zM20.512 5.116c0.958 0 1.914 0.272 2.75 0.813l0.090 0.060c0.134 0.090 0.265 0.187 0.391 0.29s0.248 0.213 0.366 0.331c0.111 0.111 0.213 0.226 0.311 0.344 0.049 0.059 0.094 0.12 0.14 0.181 0.043 0.057 0.086 0.114 0.126 0.173 0.058 0.085 0.116 0.17 0.169 0.258 0.014 0.024 0.027 0.048 0.041 0.071 0.062 0.106 0.121 0.213 0.175 0.322l0.026 0.053c0.909 1.892 0.583 4.221-0.99 5.793l-2.698 2.697c-0 0-0.017 0.021-0.035 0.043-0.7 0.726-1.083 1.894-1.45 3.203-0.373 1.33-0.658 2.784-0.859 3.881-0.093 0.508-0.193 0.811-0.358 0.976 0.046-0.046-0.002-0.002-0.031 0.023l-0.004 0.001-0.012 0.010-0.060 0.045c-0.499 0.386-1.621 0.404-3.162-0.275-0.127-0.056-0.26-0.123-0.391-0.188l-0.063-0.031c-0.979-0.488-2.069-1.21-3.191-2.148l-0.27-0.225h-0.001c-0.45-0.387-0.905-0.807-1.359-1.261-1.862-1.862-3.173-3.733-3.853-5.275s-0.661-2.664-0.275-3.162l0.050-0.065 0.003-0.005c0.047-0.052 0.084-0.095 0.026-0.037 0.165-0.165 0.467-0.264 0.975-0.357 1.097-0.201 2.552-0.487 3.883-0.86 1.188-0.333 2.212-0.711 2.942-1.295h0.113l0.186-0.188 2.7-2.7c0.996-0.996 2.297-1.494 3.598-1.494zM20.48 6.4c-0.727 0-1.874 0.309-3.016 1.471-0.775 0.789-2.552 2.604-3.176 3.178-0.276 0.253-1.338 0.705-2.447 1.024s-2.294 0.573-3.026 0.744c-0.286 0.069-0.495 0.322-0.495 0.624 0 0.354 0.287 0.641 0.641 0.641 0.052 0 0.102-0.006 0.151-0.018 0.704-0.165 1.915-0.425 3.082-0.76s2.266-0.674 2.96-1.311c0.719-0.66 2.453-2.438 3.224-3.223 0.925-0.941 1.731-1.089 2.104-1.089 0.003 0 0.006 0 0.009 0 0.354 0 0.64-0.287 0.64-0.64s-0.287-0.64-0.64-0.64c-0.003 0-0.006 0-0.010 0zM14.11 9.375c-0.023 0.020-0.061 0.055-0.061 0.055s-0.031 0.010-0.053 0.018c0.033-0.028 0.083-0.044 0.114-0.072zM11.324 23.315c0.924 0.741 1.832 1.347 2.699 1.815-0.093 0.977-0.859 1.75-1.863 1.75-1.068 0-1.92-0.852-1.92-1.92 0-0.748 0.46-1.331 1.084-1.645z"></path>
</svg>
