<!-- Generated by IcoMoon.io -->
<svg version="1.1" xmlns="http://www.w3.org/2000/svg" width="32" height="32" viewBox="0 0 32 32">
<title>checklist</title>
<path d="M0.52 0c-0.298 0.058-0.52 0.318-0.52 0.629 0 0.004 0 0.008 0 0.012v7.679c0 0.353 0.287 0.64 0.64 0.64h7.68c0.353-0 0.64-0.287 0.64-0.64v-7.68c-0-0.353-0.287-0.64-0.64-0.64h-7.68c-0.009-0-0.019-0.001-0.030-0.001s-0.021 0-0.031 0.001c-0.007-0.001-0.018-0.001-0.029-0.001s-0.021 0-0.031 0.001zM1.28 1.28h6.4v6.4h-6.4v-6.4zM6.56 2.14l-2.46 2.74-1.76-1.52-0.84 0.96 2.24 1.92 0.48 0.42 0.42-0.48 2.88-3.2-0.96-0.84zM12.8 3.86v1.24h19.2v-1.24h-19.2zM0.52 11.52c-0.298 0.058-0.52 0.318-0.52 0.629 0 0.004 0 0.008 0 0.012v7.679c0 0.353 0.287 0.64 0.64 0.64h7.68c0.353-0 0.64-0.287 0.64-0.64v-7.68c-0-0.353-0.287-0.64-0.64-0.64h-7.68c-0.009-0-0.019-0.001-0.030-0.001s-0.021 0-0.031 0.001c-0.007-0.001-0.018-0.001-0.029-0.001s-0.021 0-0.031 0.001zM1.28 12.8h6.4v6.4h-6.4v-6.4zM6.56 13.66l-2.46 2.74-1.76-1.52-0.84 0.96 2.24 1.92 0.48 0.42 0.42-0.48 2.88-3.2-0.96-0.84zM12.8 15.38v1.24h19.2v-1.24h-19.2zM0.52 23.040c-0.298 0.058-0.52 0.318-0.52 0.629 0 0.004 0 0.008 0 0.012v7.679c0 0.353 0.287 0.64 0.64 0.64h7.68c0.353-0 0.64-0.287 0.64-0.64v-7.68c-0-0.353-0.287-0.64-0.64-0.64h-7.68c-0.009-0-0.019-0.001-0.030-0.001s-0.021 0-0.031 0.001c-0.007-0-0.018-0.001-0.029-0.001s-0.021 0-0.031 0.001zM1.28 24.32h6.4v6.4h-6.4v-6.4zM12.8 26.9v1.24h19.2v-1.24h-19.2z"></path>
</svg>
