<!-- Generated by IcoMoon.io -->
<svg version="1.1" xmlns="http://www.w3.org/2000/svg" width="32" height="32" viewBox="0 0 32 32">
<title>circled-user</title>
<path d="M16 0c-8.829 0-16 7.171-16 16 0 5.107 2.408 9.649 6.14 12.58 0.183 0.143 0.371 0.284 0.56 0.42 0.054 0.040 0.105 0.081 0.16 0.12 0.080 0.056 0.159 0.106 0.24 0.16 0.171 0.117 0.342 0.229 0.52 0.34 0.041 0.025 0.079 0.055 0.12 0.080 0.074 0.045 0.145 0.096 0.22 0.14 0.135 0.079 0.282 0.145 0.42 0.22 0.224 0.123 0.448 0.247 0.68 0.36 0.236 0.115 0.476 0.215 0.72 0.32 2 0.861 4.25 1.38 6.58 1.38 1.215 0 2.457-0.246 3.64-0.62 2.399-0.618 4.574-1.795 6.4-3.36 0.076-0.060 0.134-0.104 0.2-0.16 0.039-0.035 0.081-0.065 0.12-0.1 0.015-0.014 0.026-0.027 0.040-0.040 0.077-0.070 0.144-0.148 0.22-0.22 3.088-2.918 5.020-7.042 5.020-11.62 0-8.829-7.171-16-16-16zM16 1.28c8.137 0 14.72 6.583 14.72 14.72 0 4.038-1.612 7.702-4.24 10.36-1.246-0.941-2.734-1.452-4-1.96-1.387-0.557-2.374-1.106-2.68-1.84-0.068-0.833-0.064-1.49-0.060-2.28 0.083-0.091 0.202-0.153 0.28-0.26 0.175-0.242 0.344-0.539 0.5-0.86 0.273-0.56 0.469-1.233 0.58-1.9 0.201-0.104 0.415-0.129 0.58-0.34 0.309-0.394 0.526-0.953 0.62-1.74 0.084-0.7-0.149-1.162-0.44-1.52 0.312-1.015 0.712-2.656 0.58-4.34-0.072-0.919-0.308-1.837-0.86-2.6-0.506-0.699-1.326-1.21-2.36-1.42-0.672-0.872-1.883-1.2-3.28-1.2h-0.020c-2.99 0.055-4.899 1.264-5.72 3.14-0.782 1.787-0.607 4.045-0.040 6.38-0.305 0.357-0.546 0.837-0.46 1.56 0.095 0.787 0.311 1.346 0.62 1.74 0.169 0.216 0.393 0.236 0.6 0.34 0.113 0.669 0.3 1.341 0.58 1.9 0.161 0.321 0.341 0.619 0.52 0.86 0.079 0.107 0.196 0.17 0.28 0.26 0.004 0.79 0.008 1.447-0.060 2.28-0.305 0.731-1.294 1.265-2.68 1.82-1.277 0.511-2.783 1.031-4.040 1.98-2.628-2.658-4.24-6.322-4.24-10.36 0-8.137 6.583-14.72 14.72-14.72zM15.94 5.38c0.008 0 0.012-0 0.020 0 1.289 0.005 2.122 0.383 2.36 0.8l0.16 0.26 0.3 0.040c0.89 0.124 1.4 0.482 1.76 0.98s0.56 1.192 0.62 1.96c0.12 1.536-0.322 3.323-0.6 4.16l-0.16 0.5 0.44 0.26c-0.028-0.017 0.244 0.168 0.18 0.7-0.075 0.628-0.225 0.953-0.34 1.1s-0.175 0.14-0.18 0.14l-0.54 0.040-0.060 0.52c-0.059 0.554-0.282 1.23-0.54 1.76-0.129 0.265-0.263 0.498-0.38 0.66s-0.241 0.252-0.18 0.22l-0.34 0.18v0.38c0 0.927-0.037 1.687 0.060 2.76v0.080l0.040 0.080c0.527 1.419 1.983 2.035 3.44 2.62 1.196 0.48 2.402 0.99 3.4 1.66-0.21 0.168-0.287 0.267-0.6 0.48-0.632 0.43-1.459 0.934-2.38 1.4-0.898 0.454-1.888 0.869-2.9 1.18-0.026 0.008-0.054 0.012-0.080 0.020-1.105 0.264-2.254 0.4-3.44 0.4-1.402 0-2.756-0.195-4.040-0.56-2.056-0.636-3.913-1.672-5.34-2.92 1.005-0.669 2.22-1.179 3.42-1.66 1.457-0.584 2.914-1.205 3.44-2.62l0.040-0.16c0.097-1.073 0.060-1.833 0.060-2.76v-0.38l-0.34-0.18c0.058 0.031-0.079-0.057-0.2-0.22s-0.267-0.395-0.4-0.66c-0.266-0.53-0.482-1.212-0.54-1.76l-0.060-0.52-0.54-0.040c-0.005-0-0.065 0.007-0.18-0.14s-0.264-0.471-0.34-1.1c-0.064-0.532 0.208-0.717 0.18-0.7l0.42-0.26-0.12-0.46c-0.603-2.319-0.707-4.428-0.080-5.86 0.625-1.428 1.899-2.326 4.56-2.38z"></path>
</svg>
