<!-- Generated by IcoMoon.io -->
<svg version="1.1" xmlns="http://www.w3.org/2000/svg" width="32" height="32" viewBox="0 0 32 32">
<title>circled-truck</title>
<path d="M9.151 10.639c-0.518 0-0.945 0.427-0.945 0.945v7.561c0 0.518 0.427 0.945 0.945 0.945h1.29c0.15 0.893 0.926 1.575 1.861 1.575s1.711-0.682 1.861-1.575h2.924c0.229 0 0.432-0.1 0.591-0.246 0.163 0.145 0.371 0.246 0.611 0.246h0.345c0.15 0.893 0.926 1.575 1.861 1.575 1.040 0 1.89-0.85 1.89-1.89s-0.85-1.89-1.89-1.89c-0.934 0-1.711 0.682-1.861 1.575h-0.345c-0.052 0-0.138-0.039-0.207-0.108s-0.108-0.154-0.108-0.207v-5.986c0-0.052 0.039-0.138 0.108-0.207s0.154-0.108 0.207-0.108h2.52c0.26 0 0.621 0.292 0.846 0.571l0.039 0.059h-1.516c-0.504 0-0.945 0.408-0.945 0.945v1.26c0 0.262 0.118 0.492 0.286 0.66s0.397 0.286 0.66 0.286h3.151v2.52c0 0.052-0.039 0.138-0.108 0.207s-0.154 0.108-0.207 0.108h-0.63v0.63h0.63c0.262 0 0.492-0.118 0.66-0.286s0.286-0.397 0.286-0.66v-3.022c0-0.354-0.135-0.679-0.256-0.925s-0.247-0.424-0.247-0.424v-0.010l-1.29-1.732h-0.010v-0.010c-0.279-0.349-0.728-0.807-1.349-0.807h-2.52c-0.113 0-0.217 0.021-0.315 0.059v-0.689c0-0.518-0.427-0.945-0.945-0.945l-7.876-0.001zM9.151 11.27h7.876c0.175 0 0.315 0.14 0.315 0.315v7.62c0 0.147-0.109 0.256-0.256 0.256h-2.924c-0.15-0.893-0.926-1.575-1.861-1.575s-1.711 0.682-1.861 1.575h-1.29c-0.175 0-0.315-0.14-0.315-0.315v-7.561c0.001-0.175 0.141-0.315 0.315-0.315zM20.177 14.105h1.989l0.778 1.033 0.010 0.010c0.006 0.009 0.091 0.13 0.187 0.325 0.079 0.162 0.122 0.355 0.148 0.522h-3.111c-0.052 0-0.138-0.039-0.207-0.108s-0.108-0.154-0.108-0.207v-1.26c0.001-0.155 0.189-0.315 0.315-0.315zM9.781 14.42v1.831h0.413v-0.758h0.748v-0.315h-0.748v-0.413h0.847v-0.345h-1.26zM11.356 14.42v1.762h0.345v-0.689h0.413c0.283 0 0.283 0.219 0.315 0.502 0 0.063-0.002 0.124 0.029 0.187h0.413c-0.063-0.063-0.069-0.283-0.069-0.315 0-0.441-0.183-0.502-0.246-0.502 0.095-0.032 0.275-0.159 0.275-0.443 0-0.409-0.374-0.502-0.532-0.502 0 0-0.944 0-0.944 0zM13.247 14.42v1.831h1.358v-0.354h-0.984v-0.433h0.886v-0.315h-0.886v-0.384h0.945v-0.345h-1.319zM15.038 14.42v1.831h1.358v-0.354h-0.975v-0.433h0.876v-0.315h-0.876v-0.384h0.945v-0.345h-1.329zM11.73 14.735h0.443c0.095 0 0.286 0.036 0.286 0.256 0 0.252-0.191 0.246-0.286 0.246h-0.443v-0.502zM12.301 18.515c0.7 0 1.26 0.56 1.26 1.26s-0.56 1.26-1.26 1.26-1.26-0.56-1.26-1.26 0.56-1.26 1.26-1.26zM20.492 18.515c0.7 0 1.26 0.56 1.26 1.26s-0.56 1.26-1.26 1.26-1.26-0.56-1.26-1.26 0.56-1.26 1.26-1.26zM16 3.046c7.142 0 12.954 5.811 12.954 12.954s-5.811 12.954-12.954 12.954-12.954-5.811-12.954-12.954 5.811-12.954 12.954-12.954zM16 1.92c-7.776 0-14.080 6.304-14.080 14.080s6.304 14.080 14.080 14.080 14.080-6.304 14.080-14.080-6.303-14.080-14.080-14.080v0z"></path>
</svg>
