<!-- Generated by IcoMoon.io -->
<svg version="1.1" xmlns="http://www.w3.org/2000/svg" width="32" height="32" viewBox="0 0 32 32">
<title>circled-box</title>
<path d="M16 3.046c7.142 0 12.954 5.811 12.954 12.954s-5.811 12.954-12.954 12.954-12.954-5.811-12.954-12.954 5.811-12.954 12.954-12.954zM16 1.92c-7.776 0-14.080 6.304-14.080 14.080s6.304 14.080 14.080 14.080 14.080-6.304 14.080-14.080-6.303-14.080-14.080-14.080v0zM12.824 10.457c-0.050 0.011-0.096 0.034-0.135 0.068l-3.156 2.423c-0.118 0.048-0.194 0.163-0.193 0.289v8.649c0 0.171 0.139 0.309 0.309 0.309h9.266c0.003 0 0.006 0 0.010 0 0.020-0.001 0.039-0.005 0.058-0.010 0.010-0.003 0.020-0.006 0.029-0.010 0.078-0.023 0.144-0.074 0.184-0.145l2.432-3.041c0.044-0.055 0.068-0.123 0.068-0.193v-7.973c0.017-0.104-0.019-0.209-0.096-0.28-0.003-0.007-0.006-0.013-0.010-0.019-0.003 0-0.006 0-0.010 0-0.006-0.007-0.012-0.013-0.019-0.019-0.003 0-0.006 0-0.010 0-0.015-0.011-0.032-0.021-0.048-0.029-0.028-0.011-0.057-0.017-0.087-0.019-0.010-0.001-0.019-0.001-0.029 0h-8.504c-0.010-0.001-0.019-0.001-0.029 0-0.010-0.001-0.020-0.001-0.029-0.001zM12.978 11.074h3.272l-2.085 1.854h-3.61l2.423-1.854zM17.177 11.074h3.456l-1.854 1.854h-3.687l2.085-1.854zM21.076 11.519v7.172l-1.854 2.316v-7.635l1.854-1.853zM9.956 13.546h4.209c0.060 0.019 0.124 0.019 0.184 0h4.257v8.031h-8.649v-8.031zM12.679 14.781c-0.171 0.016-0.296 0.167-0.28 0.338s0.167 0.296 0.338 0.28h3.089c0.171 0.002 0.311-0.134 0.313-0.305s-0.134-0.311-0.305-0.313c-0.003 0-0.006 0-0.009 0h-3.089c-0.010-0.001-0.019-0.001-0.029 0-0.010-0.001-0.019-0.001-0.029 0z"></path>
</svg>
