<!-- Generated by IcoMoon.io -->
<svg version="1.1" xmlns="http://www.w3.org/2000/svg" width="32" height="32" viewBox="0 0 32 32">
<title>circled-thumbs-up</title>
<path d="M16 0c-8.797 0-16 7.203-16 16s7.203 16 16 16c8.797 0 16-7.203 16-16s-7.203-16-16-16zM16 1.28c8.099 0 14.72 6.621 14.72 14.72s-6.621 14.72-14.72 14.72c-8.099 0-14.72-6.621-14.72-14.72s6.621-14.72 14.72-14.72zM15.58 3.8c-0.296-0.001-0.615 0.072-0.88 0.28-0.353 0.277-0.559 0.71-0.62 1.22-0 0.003-0 0.006-0 0.010s0 0.007 0 0.011c-0.179 1.879-0.836 2.863-1.66 3.679s-1.855 1.409-2.66 2.36c-0.003-0-0.006-0-0.010-0s-0.007 0-0.011 0c-0.644 0.781-1.134 1.592-1.579 2.14s-0.757 0.78-1.12 0.78v1.28c0.917 0 1.589-0.608 2.12-1.26s1.009-1.429 1.58-2.12c0.604-0.709 1.616-1.305 2.58-2.26s1.831-2.32 2.040-4.46c0.001-0.007-0.001-0.013 0-0.020 0.037-0.256 0.104-0.347 0.12-0.36s0.043-0.041 0.16-0.020c0.234 0.042 0.671 0.379 0.82 0.64 0.003 0 0.006 0 0.010 0s0.007-0 0.011-0c0.302 0.512 0.278 1.079 0.079 1.78s-0.581 1.47-0.94 2.22c-0.007 0.007-0.013 0.013-0.020 0.020-0.328 0.728-0.512 1.516-0.28 2.26 0.116 0.372 0.379 0.734 0.76 0.94s0.835 0.258 1.34 0.2c1.956-0.261 3.078-0.58 4.66-0.58 0.868 0 1.16 0.567 1.16 0.78 0 0.405-0.12 1.24-0.12 1.24-0.005 0.029-0.007 0.062-0.007 0.096 0 0.277 0.176 0.513 0.423 0.602 0.004 0.001 0.724 0.216 0.724 0.941 0 0.686-0.68 1.020-0.68 1.020-0.217 0.105-0.364 0.324-0.364 0.578 0 0.276 0.175 0.511 0.42 0.601 0.004 0.001 0.624 0.175 0.624 0.861 0 0.327-0.19 0.578-0.44 0.78s-0.5 0.28-0.5 0.28c-0.247 0.092-0.42 0.327-0.42 0.601 0 0.151 0.053 0.291 0.141 0.4-0.001-0.001 0.259 0.347 0.259 0.819 0 0.171-0.002 0.283-0.040 0.38s-0.105 0.214-0.38 0.38c-0.55 0.331-1.972 0.72-4.96 0.72-3.993 0-5.769-0.366-7-0.72s-2.061-0.76-3.88-0.76v1.28c1.637 0 2.211 0.338 3.54 0.72s3.269 0.76 7.34 0.76c3.092 0 4.682-0.355 5.62-0.92 0.469-0.282 0.76-0.641 0.9-1s0.14-0.691 0.14-0.84c0-0.395-0.115-0.692-0.22-0.96 0.119-0.072 0.128-0.053 0.26-0.16 0.422-0.341 0.92-0.935 0.92-1.76 0-0.687-0.31-1.167-0.64-1.5 0.323-0.357 0.64-0.86 0.64-1.56 0-1.109-0.653-1.616-1.12-1.88 0.040-0.283 0.1-0.57 0.1-1 0-1.067-1.004-2.060-2.44-2.060-1.739 0-2.929 0.329-4.8 0.58-0.011 0.001-0.010-0.001-0.020 0-0.307 0.031-0.501-0.017-0.58-0.060-0.081-0.044-0.104-0.064-0.14-0.18-0.072-0.231-0.008-0.808 0.24-1.36 0.344-0.717 0.773-1.526 1.020-2.4 0.25-0.883 0.309-1.884-0.22-2.78-0.363-0.635-0.978-1.106-1.72-1.24-0.093-0.017-0.181-0.020-0.28-0.020z"></path>
</svg>
