<!-- Generated by IcoMoon.io -->
<svg version="1.1" xmlns="http://www.w3.org/2000/svg" width="32" height="32" viewBox="0 0 32 32">
<title>group2</title>
<path d="M10.88 1.28c-1.767 0-3.2 1.433-3.2 3.2s1.433 3.2 3.2 3.2c1.767 0 3.2-1.433 3.2-3.2s-1.433-3.2-3.2-3.2zM21 1.28c-1.767 0-3.2 1.433-3.2 3.2s1.433 3.2 3.2 3.2c1.767 0 3.2-1.433 3.2-3.2s-1.433-3.2-3.2-3.2zM10.88 8.32c-0.712 0-1.372 0.164-1.96 0.46 1.201 0.938 1.98 2.402 1.98 4.040 0 1.603-0.742 3.040-1.9 3.98 0.932 0.484 1.746 1.157 2.38 2-0.305-0.654-0.48-1.372-0.48-2.14 0-2.543 1.868-4.664 4.3-5.060-0.514-1.906-2.238-3.28-4.32-3.28zM21 8.32c-2.073 0-3.798 1.366-4.32 3.26 2.508 0.329 4.46 2.484 4.46 5.080 0 0.717-0.152 1.4-0.42 2.020 0.624-0.79 1.408-1.44 2.3-1.9-1.151-0.94-1.88-2.363-1.88-3.96 0-1.607 0.738-3.040 1.9-3.98-0.612-0.326-1.289-0.52-2.040-0.52zM5.78 8.98c-2.121 0-3.84 1.719-3.84 3.84s1.719 3.84 3.84 3.84c2.121 0 3.84-1.719 3.84-3.84s-1.719-3.84-3.84-3.84zM26.26 8.98c-2.121 0-3.84 1.719-3.84 3.84s1.719 3.84 3.84 3.84c2.121 0 3.84-1.719 3.84-3.84s-1.719-3.84-3.84-3.84zM16.020 12.82c-2.121 0-3.84 1.719-3.84 3.84s1.719 3.84 3.84 3.84c2.121 0 3.84-1.719 3.84-3.84s-1.719-3.84-3.84-3.84zM5.76 17.28c-3.176 0-5.76 2.584-5.76 5.76v2.24c0 0.201 0.099 0.399 0.26 0.52 0.148 0.111 1.56 1.080 5.5 1.080 1.365 0 2.428-0.122 3.24-0.28 0.081-1.968 0.961-3.731 2.34-4.96-0.625-2.504-2.885-4.36-5.58-4.36zM26.24 17.28c-2.686 0-4.946 1.848-5.58 4.34 1.396 1.231 2.299 3.015 2.38 5 0.807 0.154 1.855 0.26 3.2 0.26 3.939 0 5.352-0.969 5.5-1.080 0.161-0.12 0.26-0.318 0.26-0.52v-2.24c0-3.176-2.584-5.76-5.76-5.76zM16.020 21.14c-3.176 0-5.76 2.584-5.76 5.76v2.24c0 0.202 0.099 0.38 0.26 0.5 0.148 0.111 1.56 1.1 5.5 1.1s5.352-0.989 5.5-1.1c0.161-0.121 0.26-0.299 0.26-0.5v-2.24c0-3.176-2.584-5.76-5.76-5.76z"></path>
</svg>
