<!-- Generated by IcoMoon.io -->
<svg version="1.1" xmlns="http://www.w3.org/2000/svg" width="32" height="32" viewBox="0 0 32 32">
<title>group</title>
<path d="M10.88 1.28c-2.113 0-3.84 1.727-3.84 3.84 0 1.27 0.624 2.4 1.58 3.1-0.513 0.258-0.981 0.591-1.38 1-0.466-0.165-0.959-0.26-1.48-0.26-2.467 0-4.48 2.013-4.48 4.48 0 1.568 0.814 2.959 2.040 3.76-1.955 0.924-3.32 2.906-3.32 5.2v2.88c0 0.001-0 0.003-0 0.005 0 0.21 0.102 0.397 0.258 0.514 0.002 0.001 0.454 0.321 1.322 0.581s2.207 0.5 4.18 0.5c1.973 0 3.313-0.24 4.18-0.5 0.112-0.034 0.202-0.065 0.3-0.1v2.84c0 0.001-0 0.003-0 0.005 0 0.21 0.102 0.397 0.258 0.514 0.002 0.001 0.454 0.321 1.322 0.581s2.207 0.5 4.18 0.5c1.973 0 3.313-0.24 4.18-0.5s1.32-0.58 1.32-0.58c0.158-0.118 0.26-0.305 0.26-0.515 0-0.002 0-0.003-0-0.005v-2.84c0.098 0.035 0.188 0.066 0.3 0.1 0.867 0.26 2.207 0.5 4.18 0.5s3.313-0.24 4.18-0.5c0.867-0.26 1.32-0.58 1.32-0.58 0.158-0.118 0.26-0.305 0.26-0.515 0-0.002 0-0.003-0-0.005v-2.88c0-2.294-1.365-4.276-3.32-5.2 1.226-0.801 2.040-2.192 2.040-3.76 0-2.467-2.013-4.48-4.48-4.48-0.558 0-1.086 0.112-1.58 0.3-0.403-0.422-0.878-0.776-1.4-1.040 0.956-0.7 1.58-1.83 1.58-3.1 0-2.113-1.727-3.84-3.84-3.84s-3.84 1.727-3.84 3.84c0 1.27 0.624 2.4 1.58 3.1-1.47 0.724-2.544 2.119-2.8 3.8-0.256-1.683-1.327-3.076-2.8-3.8 0.956-0.7 1.58-1.83 1.58-3.1 0-2.113-1.727-3.84-3.84-3.84zM10.88 2.56c1.421 0 2.56 1.139 2.56 2.56s-1.139 2.56-2.56 2.56c-1.421 0-2.56-1.139-2.56-2.56s1.139-2.56 2.56-2.56zM21 2.56c1.421 0 2.56 1.139 2.56 2.56s-1.139 2.56-2.56 2.56c-1.421 0-2.56-1.139-2.56-2.56s1.139-2.56 2.56-2.56zM10.88 8.96c2.157 0 3.84 1.683 3.84 3.84v0.2c-1.841 0.557-3.2 2.262-3.2 4.28 0 1.568 0.814 2.959 2.040 3.76-0.802 0.379-1.49 0.937-2.040 1.62v-0.26c0-2.294-1.365-4.276-3.32-5.2 1.226-0.801 2.040-2.192 2.040-3.76 0-1.46-0.713-2.761-1.8-3.58 0.664-0.568 1.489-0.9 2.44-0.9zM21 8.96c0.976 0 1.828 0.343 2.5 0.94-1.054 0.821-1.74 2.106-1.74 3.54 0 1.568 0.814 2.959 2.040 3.76-1.955 0.924-3.32 2.906-3.32 5.2v0.26c-0.55-0.683-1.238-1.241-2.040-1.62 1.226-0.801 2.040-2.192 2.040-3.76 0-2.063-1.416-3.804-3.32-4.32v-0.16c0-2.157 1.683-3.84 3.84-3.84zM5.76 10.24c0.498 0 0.961 0.12 1.38 0.32 1.075 0.514 1.82 1.603 1.82 2.88 0 1.775-1.425 3.2-3.2 3.2s-3.2-1.425-3.2-3.2c0-1.775 1.425-3.2 3.2-3.2zM26.24 10.24c1.775 0 3.2 1.425 3.2 3.2s-1.425 3.2-3.2 3.2c-1.775 0-3.2-1.425-3.2-3.2 0-1.182 0.633-2.206 1.58-2.76 0.005-0.003 0.015 0.003 0.020 0 0.1-0.021 0.187-0.063 0.261-0.121 0.020-0.009 0.037-0.029 0.059-0.039 0.017-0.008 0.030-0.015 0.043-0.022 0.38-0.16 0.793-0.258 1.237-0.258zM16 14.080c1.775 0 3.2 1.425 3.2 3.2s-1.425 3.2-3.2 3.2c-1.775 0-3.2-1.425-3.2-3.2s1.425-3.2 3.2-3.2zM5.76 17.92c2.467 0 4.48 2.013 4.48 4.48v2.46c-0.096 0.059-0.132 0.122-0.66 0.28-0.732 0.22-1.953 0.46-3.82 0.46s-3.087-0.24-3.82-0.46c-0.528-0.158-0.564-0.221-0.66-0.28v-2.46c0-2.467 2.013-4.48 4.48-4.48zM26.24 17.92c2.467 0 4.48 2.013 4.48 4.48v2.46c-0.096 0.059-0.132 0.122-0.66 0.28-0.733 0.22-1.953 0.46-3.82 0.46s-3.087-0.24-3.82-0.46c-0.528-0.158-0.564-0.221-0.66-0.28v-2.46c0-2.467 2.013-4.48 4.48-4.48zM16 21.76c2.467 0 4.48 2.013 4.48 4.48v2.46c-0.096 0.059-0.132 0.122-0.66 0.28-0.733 0.22-1.953 0.46-3.82 0.46s-3.088-0.24-3.82-0.46c-0.528-0.158-0.564-0.221-0.66-0.28v-2.46c0-2.467 2.013-4.48 4.48-4.48z"></path>
</svg>
