<!-- Generated by IcoMoon.io -->
<svg version="1.1" xmlns="http://www.w3.org/2000/svg" width="32" height="32" viewBox="0 0 32 32">
<title>marker</title>
<path d="M16 0.64c-5.656 0-10.24 4.584-10.24 10.24 0 4.678 2.471 9.705 4.9 13.6s4.86 6.66 4.86 6.66c0.118 0.133 0.289 0.217 0.48 0.217s0.362-0.084 0.479-0.216c0.001-0.001 2.432-2.823 4.861-6.741s4.9-8.933 4.9-13.52c0-5.656-4.584-10.24-10.24-10.24zM16 1.92c4.968 0 8.96 3.992 8.96 8.96 0 4.117-2.328 9.014-4.7 12.84-1.988 3.208-3.67 5.272-4.26 5.98-0.595-0.704-2.278-2.721-4.26-5.9-2.371-3.801-4.7-8.702-4.7-12.92 0-4.968 3.992-8.96 8.96-8.96zM16 7.040c-2.467 0-4.48 2.013-4.48 4.48s2.013 4.48 4.48 4.48c2.467 0 4.48-2.013 4.48-4.48s-2.013-4.48-4.48-4.48zM16 8.32c1.775 0 3.2 1.425 3.2 3.2s-1.425 3.2-3.2 3.2c-1.775 0-3.2-1.425-3.2-3.2s1.425-3.2 3.2-3.2z"></path>
</svg>
