<!-- Generated by IcoMoon.io -->
<svg version="1.1" xmlns="http://www.w3.org/2000/svg" width="32" height="32" viewBox="0 0 32 32">
<title>pencil</title>
<path d="M27.46 1.86c-0.675 0-1.35 0.25-1.86 0.76l-0.54 0.52c-0.086-0.046-0.187-0.072-0.295-0.072-0.044 0-0.087 0.004-0.129 0.013-0.122 0.028-0.231 0.092-0.316 0.179l-20.1 20.1c-0.060 0.061-0.107 0.134-0.138 0.216l-2.122 5.644c-0.024 0.065-0.038 0.14-0.038 0.218 0 0.354 0.287 0.64 0.64 0.64 0.078 0 0.153-0.014 0.223-0.040l5.636-2.119c0.086-0.033 0.159-0.080 0.22-0.14l20.1-20.1c0.112-0.115 0.181-0.272 0.181-0.446 0-0.141-0.045-0.27-0.122-0.376l0.521-0.518c1.019-1.019 1.019-2.701 0-3.72-0.51-0.51-1.185-0.76-1.86-0.76zM27.46 3.14c0.351 0 0.702 0.122 0.96 0.38 0.517 0.517 0.517 1.403 0 1.92l-0.5 0.52-1.92-1.92 0.5-0.52c0.258-0.258 0.609-0.38 0.96-0.38zM24.76 4.6l2.64 2.64-1.76 1.74-2.62-2.62 1.74-1.76zM22.1 7.26l2.64 2.64-16.58 16.56-0.48-0.5v-1c-0-0.353-0.287-0.64-0.64-0.64h-1l-0.5-0.48 16.56-16.58zM4.9 25.020l0.4 0.4c0.115 0.111 0.272 0.18 0.445 0.18 0.005 0 0.010-0 0.016-0h0.639v0.64c-0 0.004-0 0.010-0 0.015 0 0.173 0.069 0.33 0.18 0.445l0.4 0.4-2.44 0.92-0.56-0.56 0.92-2.44z"></path>
</svg>
