<!-- Generated by IcoMoon.io -->
<svg version="1.1" xmlns="http://www.w3.org/2000/svg" width="32" height="32" viewBox="0 0 32 32">
<title>squared-minus</title>
<path d="M3.84 1.92c-1.053 0-1.92 0.867-1.92 1.92v24.32c0 1.053 0.867 1.92 1.92 1.92h24.32c1.053 0 1.92-0.867 1.92-1.92v-24.32c0-1.053-0.867-1.92-1.92-1.92h-24.32zM3.84 3.2h24.32c0.355 0 0.64 0.285 0.64 0.64v24.32c0 0.355-0.285 0.64-0.64 0.64h-24.32c-0.355 0-0.64-0.285-0.64-0.64v-24.32c0-0.355 0.285-0.64 0.64-0.64zM7.68 15.36v1.28h16.64v-1.28h-16.64z"></path>
</svg>
