<!-- Generated by IcoMoon.io -->
<svg version="1.1" xmlns="http://www.w3.org/2000/svg" width="32" height="32" viewBox="0 0 32 32">
<title>unlock</title>
<path d="M14.58 0c-0.752-0.004-1.521 0.105-2.28 0.34-4.044 1.255-6.356 5.593-5.1 9.64v0.040c0.165 0.454 0.607 1.896 0.88 2.78h-2.32c-1.053 0-1.92 0.867-1.92 1.92v15.36c0 1.053 0.867 1.92 1.92 1.92h20.48c1.053 0 1.92-0.867 1.92-1.92v-15.36c0-1.053-0.867-1.92-1.92-1.92h-16.8c-0.199-0.636-0.792-2.514-1.040-3.2h0.020c-1.048-3.377 0.86-6.971 4.24-8.020 3.371-1.046 6.984 0.851 8.040 4.22 0.001 0.003-0.001 0.017 0 0.020 0.145 0.507 0.84 2.76 0.84 2.76 0.071 0.282 0.322 0.487 0.621 0.487 0.354 0 0.64-0.287 0.64-0.64 0-0.082-0.015-0.159-0.043-0.231 0.002 0.004-0.722-2.326-0.838-2.736v-0.020c-0.941-3.033-3.616-5.092-6.6-5.4-0.249-0.026-0.489-0.039-0.74-0.040zM5.76 14.080h20.48c0.355 0 0.64 0.285 0.64 0.64v15.36c0 0.355-0.285 0.64-0.64 0.64h-20.48c-0.355 0-0.64-0.285-0.64-0.64v-15.36c0-0.355 0.285-0.64 0.64-0.64zM16 19.2c-1.088 0-1.92 0.832-1.92 1.92 0 0.576 0.256 1.080 0.64 1.4v1.8c0 0.704 0.576 1.28 1.28 1.28s1.28-0.576 1.28-1.28v-1.8c0.384-0.32 0.64-0.824 0.64-1.4 0-1.088-0.832-1.92-1.92-1.92z"></path>
</svg>
